<?xml version="1.0" encoding="iso-8859-1"?>
<!-- Generator: Adobe Illustrator 21.1.0, SVG Export Plug-In . SVG Version: 6.00 Build 0)  -->
<svg xmlns="http://www.w3.org/2000/svg" xmlns:xlink="http://www.w3.org/1999/xlink" version="1.1" id="Layer_1" x="0px" y="0px" viewBox="0 0 64 64" style="enable-background:new 0 0 64 64;" xml:space="preserve" width="32px" height="32px">
<g>
	<circle style="fill:#E0678F;" cx="32" cy="32" r="29"/>
	<circle style="fill:#ED7899;" cx="32" cy="32" r="24"/>
	<path style="fill:#FFFFFF;" d="M42.849,16.908L32,27.757L21.151,16.908c-0.391-0.391-1.024-0.391-1.414,0l-2.828,2.828   c-0.391,0.391-0.391,1.024,0,1.414L27.757,32L16.908,42.849c-0.391,0.391-0.391,1.024,0,1.414l2.828,2.828   c0.391,0.391,1.024,0.391,1.414,0L32,36.243l10.849,10.849c0.391,0.391,1.024,0.391,1.414,0l2.828-2.828   c0.391-0.391,0.391-1.024,0-1.414L36.243,32l10.849-10.849c0.391-0.391,0.391-1.024,0-1.414l-2.828-2.828   C43.873,16.518,43.24,16.518,42.849,16.908z"/>
	<polygon style="fill:#FAEFDE;" points="47.713,43.471 36.243,32 32,27.757 20.529,16.287 16.287,20.529 27.757,32 16.287,43.471    20.529,47.713 32,36.243 43.471,47.713  "/>
	<path style="fill:#FFF7F0;" d="M47.506,20.737L43.3,16.457l-11.18,11.42L21.237,16.994c-1.172,1.172-1.172,3.071,0,4.243   l21.527,21.527c1.172,1.172,3.071,1.172,4.243,0L36.123,31.88L47.506,20.737z"/>
	<g>
		<path style="fill:#8D6C9F;" d="M32,2C15.458,2,2,15.458,2,32s13.458,30,30,30s30-13.458,30-30S48.542,2,32,2z M32,60    C16.561,60,4,47.439,4,32S16.561,4,32,4s28,12.561,28,28S47.439,60,32,60z"/>
		<path style="fill:#8D6C9F;" d="M37.657,32l10.142-10.142c0.78-0.78,0.78-2.049,0-2.829l-2.828-2.828    c-0.78-0.781-2.05-0.781-2.829,0L32,26.343L21.858,16.201c-0.778-0.78-2.048-0.78-2.829,0l-2.828,2.828    c-0.78,0.78-0.78,2.049,0,2.829L26.343,32L16.201,42.142c-0.78,0.78-0.78,2.049,0,2.829l2.828,2.828    c0.779,0.78,2.049,0.779,2.829,0L32,37.657l10.142,10.142c0.39,0.39,0.902,0.585,1.415,0.585c0.512,0,1.024-0.195,1.414-0.585    l2.828-2.828c0.78-0.78,0.78-2.049,0-2.829L37.657,32z M43.556,46.385L32,34.829L20.443,46.385l-2.828-2.829L29.171,32    L17.615,20.443l2.829-2.828L32,29.171l11.556-11.556l2.829,2.829L34.829,32l11.556,11.557L43.556,46.385z"/>
		<path style="fill:#8D6C9F;" d="M41.899,30.586c-0.391,0.391-0.391,1.024,0,1.414l1.415,1.414c0.195,0.195,0.451,0.293,0.707,0.293    s0.512-0.098,0.707-0.293c0.391-0.391,0.391-1.024,0-1.414l-1.415-1.414C42.923,30.195,42.289,30.195,41.899,30.586z"/>
		<path style="fill:#8D6C9F;" d="M46.849,27.05c-0.391-0.391-1.023-0.391-1.414,0s-0.391,1.023,0,1.414l1.414,1.414    c0.195,0.195,0.451,0.293,0.707,0.293s0.512-0.098,0.707-0.293c0.391-0.391,0.391-1.023,0-1.414L46.849,27.05z"/>
		<path style="fill:#8D6C9F;" d="M51.799,24.929l-1.414-1.415c-0.391-0.391-1.023-0.391-1.414,0c-0.391,0.39-0.391,1.023,0,1.414    l1.414,1.415c0.195,0.195,0.451,0.293,0.707,0.293s0.512-0.098,0.707-0.293C52.189,25.953,52.189,25.32,51.799,24.929z"/>
		<path style="fill:#8D6C9F;" d="M13.615,37.657c-0.391-0.391-1.023-0.391-1.414,0c-0.391,0.39-0.391,1.023,0,1.414l1.414,1.415    c0.195,0.195,0.451,0.293,0.707,0.293s0.512-0.098,0.707-0.293c0.391-0.39,0.391-1.023,0-1.414L13.615,37.657z"/>
		<path style="fill:#8D6C9F;" d="M17.151,36.95c0.195,0.195,0.451,0.293,0.707,0.293s0.512-0.098,0.707-0.293    c0.391-0.391,0.391-1.023,0-1.414l-1.414-1.414c-0.391-0.391-1.023-0.391-1.414,0s-0.391,1.023,0,1.414L17.151,36.95z"/>
		<path style="fill:#8D6C9F;" d="M21.394,33.707c0.256,0,0.512-0.098,0.707-0.293c0.391-0.391,0.391-1.024,0-1.414l-1.415-1.414    c-0.391-0.391-1.024-0.391-1.414,0c-0.391,0.391-0.391,1.024,0,1.414l1.415,1.414C20.882,33.609,21.138,33.707,21.394,33.707z"/>
	</g>
</g>
</svg>
