<?xml version="1.0" encoding="UTF-8"?>
<svg xmlns="http://www.w3.org/2000/svg" xmlns:xlink="http://www.w3.org/1999/xlink" viewBox="0 0 64 64" version="1.1" width="48px" height="48px">
<g id="surface1">
<path style=" fill:#ED7899;" d="M 59 31 C 59 46.464844 46.464844 59 31 59 C 15.535156 59 3 46.464844 3 31 C 3 15.535156 15.535156 3 31 3 C 46.464844 3 59 15.535156 59 31 Z "/>
<path style=" fill:#F9E3AE;" d="M 31 3 C 15.535156 3 3 15.535156 3 31 C 3 46.464844 15.535156 59 31 59 C 46.464844 59 59 46.464844 59 31 C 59 15.535156 46.464844 3 31 3 Z M 31 53 C 18.851563 53 9 43.148438 9 31 C 9 18.851563 18.851563 9 31 9 C 36.882813 9 42.226563 11.308594 46.175781 15.070313 C 46.40625 15.289063 46.628906 15.515625 46.851563 15.742188 C 47.109375 16.011719 47.359375 16.285156 47.605469 16.570313 C 50.964844 20.433594 53 25.476563 53 31 C 53 43.148438 43.148438 53 31 53 Z "/>
<path style=" fill:#F6D397;" d="M 31 53 C 18.851563 53 9 43.148438 9 31 L 7.339844 31 C 4.847656 31 2.976563 33.25 3.394531 35.707031 C 5.632813 48.929688 17.140625 59 31 59 C 44.859375 59 56.367188 48.929688 58.605469 35.707031 C 59.023438 33.25 57.152344 31 54.660156 31 L 53 31 C 53 43.148438 43.148438 53 31 53 Z "/>
<path style=" fill:#8D6C9F;" d="M 31 2 C 15.011719 2 2 15.007813 2 31 C 2 46.992188 15.011719 60 31 60 C 46.988281 60 60 46.992188 60 31 C 60 15.007813 46.988281 2 31 2 Z M 31 58 C 16.113281 58 4 45.886719 4 31 C 4 16.113281 16.113281 4 31 4 C 45.886719 4 58 16.113281 58 31 C 58 45.886719 45.886719 58 31 58 Z "/>
<path style=" fill:#8D6C9F;" d="M 31 50 C 30.445313 50 30 50.449219 30 51 L 30 53 C 30 53.550781 30.445313 54 31 54 C 31.554688 54 32 53.550781 32 53 L 32 51 C 32 50.449219 31.554688 50 31 50 Z "/>
<path style=" fill:#8D6C9F;" d="M 37.011719 50.078125 C 36.871094 49.542969 36.320313 49.226563 35.789063 49.371094 C 35.253906 49.511719 34.9375 50.0625 35.082031 50.59375 L 35.597656 52.527344 C 35.71875 52.972656 36.121094 53.269531 36.5625 53.269531 C 36.648438 53.269531 36.738281 53.257813 36.824219 53.234375 C 37.355469 53.089844 37.675781 52.542969 37.53125 52.007813 Z "/>
<path style=" fill:#8D6C9F;" d="M 21.75 47.519531 C 21.273438 47.246094 20.660156 47.410156 20.382813 47.886719 L 19.382813 49.617188 C 19.109375 50.097656 19.273438 50.710938 19.75 50.984375 C 19.90625 51.074219 20.078125 51.117188 20.25 51.117188 C 20.59375 51.117188 20.929688 50.941406 21.117188 50.617188 L 22.117188 48.886719 C 22.394531 48.410156 22.230469 47.796875 21.75 47.519531 Z "/>
<path style=" fill:#8D6C9F;" d="M 41.617188 47.886719 C 41.339844 47.410156 40.726563 47.246094 40.25 47.523438 C 39.769531 47.796875 39.605469 48.410156 39.882813 48.886719 L 40.882813 50.621094 C 41.070313 50.941406 41.40625 51.121094 41.75 51.121094 C 41.921875 51.121094 42.09375 51.078125 42.25 50.984375 C 42.730469 50.710938 42.894531 50.097656 42.617188 49.621094 Z "/>
<path style=" fill:#8D6C9F;" d="M 26.210938 49.371094 C 25.679688 49.226563 25.128906 49.542969 24.988281 50.078125 L 24.46875 52.007813 C 24.324219 52.542969 24.644531 53.089844 25.175781 53.234375 C 25.261719 53.257813 25.351563 53.269531 25.4375 53.269531 C 25.878906 53.269531 26.28125 52.972656 26.402344 52.527344 L 26.917969 50.59375 C 27.0625 50.0625 26.746094 49.511719 26.210938 49.371094 Z "/>
<path style=" fill:#FAEFDE;" d="M 40.191406 38.777344 L 32.414063 31 L 40.191406 23.222656 C 40.582031 22.832031 40.582031 22.199219 40.191406 21.808594 C 39.800781 21.417969 39.167969 21.417969 38.777344 21.808594 L 31 29.585938 L 23.222656 21.808594 C 22.832031 21.417969 22.199219 21.417969 21.808594 21.808594 C 21.417969 22.199219 21.417969 22.832031 21.808594 23.222656 L 29.585938 31 L 21.808594 38.777344 C 21.417969 39.167969 21.417969 39.800781 21.808594 40.191406 C 22.003906 40.386719 22.257813 40.484375 22.515625 40.484375 C 22.769531 40.484375 23.027344 40.386719 23.222656 40.191406 L 31 32.414063 L 38.777344 40.191406 C 38.972656 40.386719 39.230469 40.484375 39.484375 40.484375 C 39.742188 40.484375 39.996094 40.386719 40.191406 40.191406 C 40.582031 39.800781 40.582031 39.167969 40.191406 38.777344 Z "/>
<path style=" fill:#8D6C9F;" d="M 38.351563 11.320313 C 39.0625 11.589844 39.769531 11.898438 40.449219 12.242188 C 40.597656 12.3125 40.75 12.347656 40.898438 12.347656 C 41.265625 12.347656 41.617188 12.148438 41.792969 11.800781 C 42.042969 11.304688 41.84375 10.703125 41.351563 10.457031 C 40.609375 10.078125 39.832031 9.742188 39.050781 9.449219 C 38.53125 9.253906 37.957031 9.519531 37.765625 10.035156 C 37.570313 10.554688 37.832031 11.128906 38.351563 11.320313 Z "/>
<path style=" fill:#8D6C9F;" d="M 16.148438 16.152344 C 20.898438 11.402344 27.699219 9.203125 34.339844 10.265625 C 34.882813 10.351563 35.398438 9.980469 35.484375 9.4375 C 35.570313 8.890625 35.199219 8.378906 34.65625 8.289063 C 27.386719 7.121094 19.9375 9.535156 14.738281 14.734375 C 5.769531 23.703125 5.769531 38.296875 14.738281 47.261719 C 14.933594 47.457031 15.1875 47.554688 15.445313 47.554688 C 15.699219 47.554688 15.957031 47.457031 16.152344 47.261719 C 16.542969 46.871094 16.542969 46.238281 16.152344 45.847656 C 7.964844 37.660156 7.964844 24.339844 16.148438 16.152344 Z "/>
<path style=" fill:#8D6C9F;" d="M 47.265625 14.738281 C 46.605469 14.078125 45.902344 13.453125 45.171875 12.882813 C 44.734375 12.539063 44.105469 12.617188 43.765625 13.050781 C 43.425781 13.484375 43.5 14.113281 43.9375 14.453125 C 44.605469 14.976563 45.246094 15.550781 45.851563 16.152344 C 54.039063 24.339844 54.039063 37.660156 45.851563 45.847656 C 45.460938 46.238281 45.460938 46.871094 45.851563 47.261719 C 46.046875 47.457031 46.300781 47.554688 46.558594 47.554688 C 46.8125 47.554688 47.070313 47.457031 47.265625 47.261719 C 56.230469 38.296875 56.230469 23.703125 47.265625 14.738281 Z "/>
</g>
</svg>
