<?xml version="1.0" encoding="UTF-8"?>
<svg xmlns="http://www.w3.org/2000/svg" xmlns:xlink="http://www.w3.org/1999/xlink" viewBox="0 0 64 64" version="1.1" width="48px" height="48px">
<g id="surface1">
<path style=" fill:#85CBF8;" d="M 59 31 C 59 46.464844 46.464844 59 31 59 C 15.535156 59 3 46.464844 3 31 C 3 15.535156 15.535156 3 31 3 C 46.464844 3 59 15.535156 59 31 Z "/>
<path style=" fill:#C2CDE7;" d="M 31 3 C 15.535156 3 3 15.535156 3 31 C 3 46.464844 15.535156 59 31 59 C 46.464844 59 59 46.464844 59 31 C 59 15.535156 46.464844 3 31 3 Z M 31 53 C 21.109375 53 12.433594 46.402344 9.792969 36.867188 C 7.15625 27.335938 11.203125 17.214844 19.6875 12.128906 C 28.171875 7.042969 39.007813 8.246094 46.171875 15.070313 L 46.851563 15.738281 C 47.109375 16.007813 47.359375 16.28125 47.601563 16.558594 C 53.257813 23.0625 54.597656 32.273438 51.023438 40.121094 C 47.449219 47.964844 39.621094 53 31 53 Z "/>
<path style=" fill:#ACB7D0;" d="M 31 53 C 18.851563 53 9 43.148438 9 31 L 7.339844 31 C 6.152344 30.996094 5.023438 31.519531 4.261719 32.429688 C 3.5 33.339844 3.179688 34.542969 3.390625 35.710938 C 5.675781 49.171875 17.339844 59.023438 30.996094 59.023438 C 44.652344 59.023438 56.3125 49.171875 58.601563 35.710938 C 58.808594 34.542969 58.492188 33.34375 57.730469 32.433594 C 56.972656 31.523438 55.847656 31 54.660156 31 L 53 31 C 53 43.148438 43.148438 53 31 53 Z "/>
<path style=" fill:#8D6C9F;" d="M 31 2 C 14.984375 2 2 14.984375 2 31 C 2 47.015625 14.984375 60 31 60 C 47.015625 60 60 47.015625 60 31 C 60 14.984375 47.015625 2 31 2 Z M 31 58 C 16.089844 58 4 45.910156 4 31 C 4 16.089844 16.089844 4 31 4 C 45.910156 4 58 16.089844 58 31 C 58 45.910156 45.910156 58 31 58 Z "/>
<path style=" fill:#8D6C9F;" d="M 31 50 C 30.449219 50 30 50.449219 30 51 L 30 53 C 30 53.550781 30.449219 54 31 54 C 31.550781 54 32 53.550781 32 53 L 32 51 C 32 50.449219 31.550781 50 31 50 Z "/>
<path style=" fill:#8D6C9F;" d="M 37 50.078125 C 36.84375 49.566406 36.304688 49.265625 35.785156 49.40625 C 35.261719 49.546875 34.949219 50.074219 35.070313 50.601563 L 35.589844 52.53125 C 35.738281 53.066406 36.289063 53.382813 36.824219 53.234375 C 37.359375 53.089844 37.675781 52.535156 37.53125 52 Z "/>
<path style=" fill:#8D6C9F;" d="M 21.75 47.519531 C 21.519531 47.386719 21.246094 47.351563 20.988281 47.417969 C 20.730469 47.488281 20.511719 47.660156 20.378906 47.890625 L 19.378906 49.621094 C 19.183594 49.929688 19.171875 50.324219 19.351563 50.644531 C 19.53125 50.964844 19.871094 51.160156 20.238281 51.15625 C 20.605469 51.152344 20.941406 50.945313 21.109375 50.621094 L 22.109375 48.890625 C 22.246094 48.660156 22.28125 48.386719 22.214844 48.128906 C 22.148438 47.875 21.980469 47.652344 21.75 47.519531 Z "/>
<path style=" fill:#8D6C9F;" d="M 41.621094 47.890625 C 41.449219 47.566406 41.113281 47.359375 40.746094 47.355469 C 40.378906 47.347656 40.039063 47.546875 39.859375 47.867188 C 39.683594 48.1875 39.691406 48.578125 39.890625 48.890625 L 40.890625 50.621094 C 41.058594 50.945313 41.394531 51.152344 41.761719 51.15625 C 42.128906 51.160156 42.46875 50.964844 42.648438 50.644531 C 42.828125 50.324219 42.816406 49.929688 42.621094 49.621094 Z "/>
<path style=" fill:#8D6C9F;" d="M 26.210938 49.371094 C 25.675781 49.230469 25.132813 49.546875 24.988281 50.078125 L 24.46875 52 C 24.363281 52.347656 24.453125 52.730469 24.710938 52.992188 C 24.964844 53.253906 25.34375 53.355469 25.695313 53.257813 C 26.046875 53.160156 26.316406 52.875 26.398438 52.519531 L 26.921875 50.589844 C 27.058594 50.058594 26.742188 49.511719 26.210938 49.371094 Z "/>
<path style=" fill:#FAEFDE;" d="M 43 30 L 32 30 L 32 19 C 32 18.449219 31.550781 18 31 18 C 30.449219 18 30 18.449219 30 19 L 30 30 L 19 30 C 18.449219 30 18 30.449219 18 31 C 18 31.550781 18.449219 32 19 32 L 30 32 L 30 43 C 30 43.550781 30.449219 44 31 44 C 31.550781 44 32 43.550781 32 43 L 32 32 L 43 32 C 43.550781 32 44 31.550781 44 31 C 44 30.449219 43.550781 30 43 30 Z "/>
<path style=" fill:#8D6C9F;" d="M 38.351563 11.320313 C 39.066406 11.589844 39.765625 11.894531 40.449219 12.238281 C 40.945313 12.488281 41.546875 12.289063 41.796875 11.796875 C 42.042969 11.300781 41.84375 10.699219 41.351563 10.449219 C 40.601563 10.074219 39.835938 9.742188 39.050781 9.449219 C 38.710938 9.300781 38.316406 9.351563 38.027344 9.582031 C 37.734375 9.8125 37.59375 10.183594 37.664063 10.546875 C 37.730469 10.914063 37.996094 11.210938 38.351563 11.320313 Z "/>
<path style=" fill:#8D6C9F;" d="M 16.148438 16.148438 C 20.925781 11.394531 27.683594 9.210938 34.339844 10.269531 C 34.890625 10.359375 35.410156 9.980469 35.5 9.429688 C 35.589844 8.878906 35.210938 8.359375 34.660156 8.269531 C 24.800781 6.667969 15.03125 11.613281 10.484375 20.511719 C 5.941406 29.40625 7.660156 40.21875 14.738281 47.269531 C 15.136719 47.609375 15.726563 47.585938 16.097656 47.21875 C 16.46875 46.847656 16.488281 46.257813 16.148438 45.859375 C 7.941406 37.65625 7.941406 24.351563 16.148438 16.148438 Z "/>
<path style=" fill:#8D6C9F;" d="M 47.261719 14.738281 C 46.601563 14.078125 45.902344 13.457031 45.171875 12.878906 C 44.734375 12.589844 44.148438 12.683594 43.828125 13.09375 C 43.503906 13.507813 43.554688 14.097656 43.941406 14.449219 C 44.609375 14.976563 45.246094 15.546875 45.851563 16.148438 C 54.050781 24.351563 54.050781 37.648438 45.851563 45.851563 C 45.566406 46.09375 45.441406 46.476563 45.527344 46.84375 C 45.617188 47.207031 45.902344 47.492188 46.265625 47.582031 C 46.632813 47.667969 47.015625 47.546875 47.261719 47.261719 C 56.238281 38.277344 56.238281 23.722656 47.261719 14.738281 Z "/>
</g>
</svg>
