<?xml version="1.0" encoding="UTF-8"?>
<svg xmlns="http://www.w3.org/2000/svg" xmlns:xlink="http://www.w3.org/1999/xlink" viewBox="0 0 64 64" version="1.1" width="64px" height="64px">
<g id="surface1">
<path style=" fill:#C2CDE7;" d="M 58.800781 26.828125 L 52.140625 25.160156 C 51.839844 24.285156 51.484375 23.433594 51.070313 22.609375 L 54.609375 16.710938 C 55.292969 15.570313 55.109375 14.109375 54.171875 13.171875 L 50.839844 9.828125 C 49.902344 8.890625 48.441406 8.707031 47.300781 9.390625 L 41.398438 12.929688 C 40.570313 12.519531 39.714844 12.164063 38.839844 11.871094 L 37.171875 5.199219 C 36.847656 3.910156 35.691406 3 34.359375 3 L 29.640625 3 C 28.308594 3 27.152344 3.910156 26.828125 5.199219 L 25.160156 11.859375 C 24.285156 12.160156 23.433594 12.515625 22.609375 12.929688 L 16.699219 9.390625 C 15.558594 8.707031 14.097656 8.890625 13.160156 9.828125 L 9.828125 13.160156 C 8.890625 14.097656 8.707031 15.558594 9.390625 16.699219 L 12.929688 22.601563 C 12.519531 23.429688 12.164063 24.285156 11.871094 25.160156 L 5.199219 26.828125 C 3.910156 27.152344 3 28.308594 3 29.640625 L 3 34.351563 C 3 35.679688 3.910156 36.839844 5.199219 37.160156 L 11.859375 38.828125 C 12.160156 39.703125 12.515625 40.554688 12.929688 41.378906 L 9.390625 47.300781 C 8.707031 48.441406 8.890625 49.902344 9.828125 50.839844 L 13.160156 54.171875 C 14.097656 55.109375 15.558594 55.292969 16.699219 54.609375 L 22.601563 51.070313 C 23.429688 51.480469 24.285156 51.835938 25.160156 52.128906 L 26.828125 58.800781 C 27.152344 60.089844 28.308594 61 29.640625 61 L 34.351563 61 C 35.679688 61 36.839844 60.089844 37.160156 58.800781 L 38.828125 52.140625 C 39.703125 51.839844 40.554688 51.484375 41.378906 51.070313 L 47.28125 54.609375 C 48.421875 55.296875 49.882813 55.113281 50.820313 54.171875 L 54.148438 50.839844 C 55.089844 49.902344 55.273438 48.441406 54.589844 47.300781 L 51.050781 41.398438 C 51.460938 40.570313 51.816406 39.714844 52.109375 38.839844 L 58.78125 37.171875 C 60.078125 36.855469 60.996094 35.695313 61 34.359375 L 61 29.640625 C 61 28.308594 60.089844 27.152344 58.800781 26.828125 Z "/>
<path style=" fill:#D3DDED;" d="M 52.140625 25.160156 C 51.839844 24.285156 51.484375 23.433594 51.070313 22.609375 L 54.609375 16.710938 C 55.292969 15.570313 55.109375 14.109375 54.171875 13.171875 L 53.5 12.5 L 12.710938 53.289063 C 13.328125 53.878906 13.96875 54.429688 14.640625 54.960938 C 15.347656 55.105469 16.082031 54.980469 16.699219 54.609375 L 22.601563 51.070313 C 23.429688 51.480469 24.285156 51.835938 25.160156 52.128906 L 25.898438 55.128906 L 55.101563 25.898438 Z "/>
<path style=" fill:#D3DDED;" d="M 51.511719 10.488281 L 51 10 L 46.28125 10 L 45.578125 10.421875 L 10.421875 45.578125 L 9.421875 47.300781 C 9.125 47.785156 8.980469 48.34375 9 48.910156 C 9.550781 49.714844 10.140625 50.488281 10.769531 51.230469 Z "/>
<path style=" fill:#D3DDED;" d="M 38.839844 11.859375 L 38.101563 8.859375 L 8.898438 38.101563 L 11.898438 38.839844 C 12.011719 39.148438 12.128906 39.46875 12.261719 39.78125 L 39.78125 12.21875 C 39.46875 12.089844 39.148438 12 38.839844 11.859375 Z "/>
<path style=" fill:#ACB7D0;" d="M 45 32 C 45 39.179688 39.179688 45 32 45 C 24.820313 45 19 39.179688 19 32 C 19 24.820313 24.820313 19 32 19 C 39.179688 19 45 24.820313 45 32 Z "/>
<path style=" fill:#F9DD8F;" d="M 39 32 C 39 35.867188 35.867188 39 32 39 C 28.132813 39 25 35.867188 25 32 C 25 28.132813 28.132813 25 32 25 C 35.867188 25 39 28.132813 39 32 Z "/>
<path style=" fill:#8D6C9F;" d="M 45 31 L 43 31 C 42.449219 31 42 31.449219 42 32 C 42 32.550781 42.449219 33 43 33 L 45 33 C 45.550781 33 46 32.550781 46 32 C 46 31.449219 45.550781 31 45 31 Z "/>
<path style=" fill:#8D6C9F;" d="M 32 42 C 31.449219 42 31 42.449219 31 43 L 31 45 C 31 45.550781 31.449219 46 32 46 C 32.550781 46 33 45.550781 33 45 L 33 43 C 33 42.449219 32.550781 42 32 42 Z "/>
<path style=" fill:#8D6C9F;" d="M 40.488281 39.070313 C 40.09375 38.730469 39.5 38.753906 39.132813 39.121094 C 38.761719 39.492188 38.738281 40.082031 39.078125 40.480469 L 40.488281 41.890625 C 40.886719 42.230469 41.476563 42.207031 41.847656 41.835938 C 42.21875 41.46875 42.238281 40.875 41.898438 40.480469 Z "/>
<path style=" fill:#8D6C9F;" d="M 39.78125 25.21875 C 40.046875 25.222656 40.300781 25.117188 40.488281 24.929688 L 41.898438 23.519531 C 42.238281 23.125 42.21875 22.53125 41.847656 22.164063 C 41.476563 21.792969 40.886719 21.769531 40.488281 22.109375 L 39.078125 23.519531 C 38.792969 23.804688 38.703125 24.238281 38.859375 24.613281 C 39.015625 24.988281 39.382813 25.230469 39.789063 25.230469 Z "/>
<path style=" fill:#8D6C9F;" d="M 44.429688 35.941406 L 42.578125 35.191406 C 42.246094 34.964844 41.808594 34.964844 41.472656 35.1875 C 41.132813 35.410156 40.964844 35.8125 41.042969 36.210938 C 41.117188 36.605469 41.425781 36.917969 41.820313 37 L 43.671875 37.75 C 44.003906 37.910156 44.402344 37.871094 44.699219 37.648438 C 45 37.425781 45.148438 37.058594 45.089844 36.691406 C 45.03125 36.324219 44.773438 36.019531 44.421875 35.898438 Z "/>
<path style=" fill:#8D6C9F;" d="M 37.21875 41.738281 C 37.089844 41.398438 36.78125 41.152344 36.421875 41.105469 C 36.058594 41.054688 35.695313 41.207031 35.480469 41.503906 C 35.261719 41.796875 35.222656 42.1875 35.378906 42.519531 L 36.160156 44.359375 C 36.289063 44.703125 36.597656 44.945313 36.960938 44.996094 C 37.324219 45.046875 37.683594 44.894531 37.902344 44.597656 C 38.117188 44.300781 38.15625 43.910156 38 43.578125 Z "/>
<path style=" fill:#8D6C9F;" d="M 41.210938 28.089844 C 41.425781 28.597656 42.011719 28.835938 42.519531 28.621094 L 44.359375 27.839844 C 44.847656 27.613281 45.066406 27.039063 44.855469 26.542969 C 44.644531 26.050781 44.082031 25.808594 43.578125 26 L 41.738281 26.78125 C 41.230469 26.996094 40.996094 27.582031 41.210938 28.089844 Z "/>
<path style=" fill:#8D6C9F;" d="M 59.730469 26.648438 L 52.839844 24.921875 C 52.53125 24.015625 52.160156 23.132813 51.730469 22.28125 L 55.390625 16.171875 C 56.101563 14.988281 55.914063 13.472656 54.941406 12.5 L 51.488281 9.058594 C 50.515625 8.089844 49.007813 7.902344 47.828125 8.609375 L 41.71875 12.269531 C 40.867188 11.84375 39.984375 11.476563 39.078125 11.171875 L 37.359375 4.269531 C 37.023438 2.933594 35.820313 1.996094 34.441406 2 L 29.558594 2 C 28.183594 2 26.984375 2.9375 26.648438 4.269531 L 24.921875 11.160156 C 24.015625 11.46875 23.132813 11.839844 22.28125 12.269531 L 16.179688 8.609375 C 15 7.902344 13.492188 8.089844 12.519531 9.058594 L 9.058594 12.511719 C 8.085938 13.484375 7.898438 15 8.609375 16.179688 L 12.269531 22.289063 C 11.84375 23.148438 11.476563 24.03125 11.171875 24.941406 L 4.269531 26.660156 C 2.9375 26.992188 2.003906 28.1875 2 29.558594 L 2 34.441406 C 2 35.816406 2.9375 37.015625 4.269531 37.351563 L 11.160156 39.078125 C 11.46875 39.984375 11.839844 40.867188 12.269531 41.71875 L 8.609375 47.820313 C 7.898438 49 8.085938 50.515625 9.058594 51.488281 L 12.511719 54.941406 C 13.484375 55.910156 14.992188 56.097656 16.171875 55.390625 L 22.28125 51.730469 C 23.132813 52.15625 24.015625 52.523438 24.921875 52.828125 L 26.640625 59.730469 C 26.976563 61.066406 28.179688 62.003906 29.558594 62 L 34.441406 62 C 35.816406 62 37.015625 61.0625 37.351563 59.730469 L 39.078125 52.839844 C 39.984375 52.53125 40.867188 52.160156 41.71875 51.730469 L 47.828125 55.390625 C 49.007813 56.097656 50.515625 55.910156 51.488281 54.941406 L 54.941406 51.488281 C 55.914063 50.515625 56.101563 49 55.390625 47.820313 L 51.730469 41.710938 C 52.15625 40.851563 52.523438 39.96875 52.828125 39.058594 L 59.730469 37.339844 C 61.0625 37.007813 61.996094 35.8125 62 34.441406 L 62 29.558594 C 62 28.183594 61.0625 26.984375 59.730469 26.648438 Z M 60 34.441406 C 60.015625 34.910156 59.695313 35.328125 59.238281 35.441406 L 52.339844 37.160156 C 51.683594 37.328125 51.15625 37.816406 50.941406 38.460938 C 50.660156 39.28125 50.324219 40.082031 49.941406 40.859375 C 49.640625 41.460938 49.664063 42.167969 50 42.75 L 53.660156 48.859375 C 53.894531 49.253906 53.832031 49.753906 53.511719 50.078125 L 50.058594 53.53125 C 49.734375 53.855469 49.234375 53.914063 48.839844 53.679688 L 42.75 50 C 42.164063 49.652344 41.441406 49.625 40.828125 49.929688 C 40.050781 50.316406 39.25 50.648438 38.429688 50.929688 C 37.789063 51.144531 37.296875 51.671875 37.128906 52.328125 L 35.410156 59.230469 C 35.296875 59.6875 34.878906 60.003906 34.410156 59.988281 L 29.558594 59.988281 C 29.089844 60.003906 28.671875 59.6875 28.558594 59.230469 L 26.839844 52.328125 C 26.671875 51.671875 26.183594 51.144531 25.539063 50.929688 C 24.71875 50.648438 23.917969 50.316406 23.140625 49.929688 C 22.859375 49.789063 22.550781 49.71875 22.238281 49.71875 C 21.886719 49.722656 21.542969 49.820313 21.238281 50 L 15.128906 53.660156 C 14.738281 53.894531 14.234375 53.832031 13.910156 53.511719 L 10.460938 50.058594 C 10.136719 49.734375 10.074219 49.234375 10.308594 48.839844 L 14 42.75 C 14.347656 42.164063 14.375 41.441406 14.070313 40.828125 C 13.683594 40.050781 13.351563 39.25 13.070313 38.429688 C 12.855469 37.789063 12.328125 37.296875 11.671875 37.128906 L 4.769531 35.410156 C 4.3125 35.296875 3.996094 34.878906 4.011719 34.410156 L 4.011719 29.558594 C 3.996094 29.089844 4.3125 28.671875 4.769531 28.558594 L 11.671875 26.839844 C 12.328125 26.671875 12.855469 26.183594 13.070313 25.539063 C 13.351563 24.71875 13.683594 23.917969 14.070313 23.140625 C 14.363281 22.539063 14.339844 21.828125 14 21.25 L 10.339844 15.140625 C 10.105469 14.746094 10.167969 14.246094 10.488281 13.921875 L 13.941406 10.46875 C 14.265625 10.144531 14.765625 10.085938 15.160156 10.320313 L 21.25 14 C 21.835938 14.347656 22.558594 14.375 23.171875 14.070313 C 23.949219 13.683594 24.75 13.351563 25.570313 13.070313 C 26.210938 12.855469 26.703125 12.328125 26.871094 11.671875 L 28.589844 4.769531 C 28.703125 4.3125 29.121094 3.996094 29.589844 4.011719 L 34.46875 4.011719 C 34.941406 3.996094 35.355469 4.3125 35.46875 4.769531 L 37.191406 11.671875 C 37.359375 12.328125 37.847656 12.855469 38.488281 13.070313 C 39.3125 13.351563 40.113281 13.683594 40.890625 14.070313 C 41.484375 14.355469 42.179688 14.328125 42.75 14 L 48.859375 10.339844 C 49.253906 10.105469 49.753906 10.167969 50.078125 10.488281 L 53.53125 13.941406 C 53.855469 14.265625 53.914063 14.765625 53.679688 15.160156 L 50 21.25 C 49.652344 21.835938 49.625 22.558594 49.929688 23.171875 C 50.316406 23.949219 50.648438 24.75 50.929688 25.570313 C 51.144531 26.210938 51.671875 26.703125 52.328125 26.871094 L 59.230469 28.589844 C 59.6875 28.703125 60.003906 29.121094 59.988281 29.589844 Z "/>
<path style=" fill:#8D6C9F;" d="M 32 24 C 27.582031 24 24 27.582031 24 32 C 24 36.417969 27.582031 40 32 40 C 36.417969 40 40 36.417969 40 32 C 40 27.582031 36.417969 24 32 24 Z M 32 38 C 28.6875 38 26 35.3125 26 32 C 26 28.6875 28.6875 26 32 26 C 35.3125 26 38 28.6875 38 32 C 38 35.3125 35.3125 38 32 38 Z "/>
<path style=" fill:#8D6C9F;" d="M 26.390625 42.609375 C 21.988281 40.28125 19.480469 35.476563 20.089844 30.535156 C 20.699219 25.59375 24.296875 21.539063 29.128906 20.351563 C 29.488281 20.277344 29.777344 20.011719 29.882813 19.660156 C 29.992188 19.308594 29.898438 18.929688 29.640625 18.667969 C 29.382813 18.40625 29.003906 18.308594 28.648438 18.410156 C 22.988281 19.785156 18.773438 24.523438 18.0625 30.304688 C 17.351563 36.085938 20.292969 41.703125 25.449219 44.410156 C 25.9375 44.667969 26.546875 44.484375 26.804688 43.996094 C 27.066406 43.507813 26.878906 42.898438 26.390625 42.640625 Z "/>
<path style=" fill:#8D6C9F;" d="M 33.609375 20.109375 C 34.328125 20.207031 35.039063 20.367188 35.730469 20.589844 C 36.246094 20.738281 36.789063 20.449219 36.957031 19.9375 C 37.121094 19.425781 36.855469 18.875 36.351563 18.691406 C 35.546875 18.429688 34.71875 18.242188 33.878906 18.128906 C 33.328125 18.058594 32.820313 18.449219 32.75 19 C 32.679688 19.550781 33.066406 20.058594 33.621094 20.128906 Z "/>
<path style=" fill:#8D6C9F;" d="M 34 32 C 34 33.105469 33.105469 34 32 34 C 30.894531 34 30 33.105469 30 32 C 30 30.894531 30.894531 30 32 30 C 33.105469 30 34 30.894531 34 32 Z "/>
<path style=" fill:#FFF8F8;" d="M 32.5 9 L 33.738281 11.261719 L 36 12.5 L 33.738281 13.738281 L 32.5 16 L 31.261719 13.738281 L 29 12.5 L 31.261719 11.261719 Z "/>
<path style=" fill:#FFF8F8;" d="M 18.421875 42 L 19.269531 43.558594 L 20.839844 44.421875 L 19.269531 45.269531 L 18.421875 46.839844 L 17.558594 45.269531 L 16 44.421875 L 17.558594 43.558594 Z "/>
<path style=" fill:#FFF8F8;" d="M 46.351563 19 L 46.941406 20.070313 L 48 20.648438 L 46.941406 21.230469 L 46.351563 22.300781 L 45.769531 21.230469 L 44.699219 20.648438 L 45.769531 20.070313 Z "/>
</g>
</svg>
