<?xml version="1.0" encoding="UTF-8"?>
<svg xmlns="http://www.w3.org/2000/svg" xmlns:xlink="http://www.w3.org/1999/xlink" viewBox="0 0 64 64" version="1.1" width="64px" height="64px">
<g id="surface1">
<path style=" fill:#C2CDE7;" d="M 10 11 L 50 11 C 51.65625 11 53 12.34375 53 14 L 53 54 C 53 55.65625 51.65625 57 50 57 L 10 57 C 8.34375 57 7 55.65625 7 54 L 7 14 C 7 12.34375 8.34375 11 10 11 Z "/>
<path style=" fill:#CED9ED;" d="M 53 19.839844 L 18.269531 54.570313 L 35.25 54.570313 L 53 36.828125 Z "/>
<path style=" fill:#CED9ED;" d="M 53 14 C 53 12.34375 51.65625 11 50 11 L 48.488281 11 L 7 52.488281 L 7 54 C 7.003906 54.707031 7.257813 55.390625 7.71875 55.929688 L 10.460938 57 L 53 14.460938 Z "/>
<path style=" fill:#CED9ED;" d="M 7 41.570313 L 7 46.429688 L 42.429688 11 L 37.570313 11 Z "/>
<path style=" fill:#EDF0F4;" d="M 21.5 22 L 22.738281 24.261719 L 25 25.5 L 22.738281 26.738281 L 21.5 29 L 20.261719 26.738281 L 18 25.5 L 20.261719 24.261719 Z "/>
<path style=" fill:#EDF0F4;" d="M 40.421875 34 L 41.269531 35.558594 L 42.839844 36.421875 L 41.269531 37.269531 L 40.421875 38.839844 L 39.558594 37.269531 L 38 36.421875 L 39.558594 35.558594 Z "/>
<path style=" fill:#EDF0F4;" d="M 16.648438 41 L 17.230469 42.058594 L 18.300781 42.648438 L 17.230469 43.230469 L 16.648438 44.300781 L 16.070313 43.230469 L 15 42.648438 L 16.070313 42.058594 Z "/>
<path style=" fill:#ACB7D0;" d="M 53 56 C 53 56.550781 52.550781 57 52 57 L 8 57 C 7.449219 57 7 56.550781 7 56 C 7 53.789063 8.789063 52 11 52 L 49 52 C 51.210938 52 53 53.789063 53 56 Z "/>
<path style=" fill:#8D6C9F;" d="M 15 50 C 14.449219 50 14 50.449219 14 51 L 14 53 C 14 53.550781 14.449219 54 15 54 C 15.550781 54 16 53.550781 16 53 L 16 51 C 16 50.449219 15.550781 50 15 50 Z "/>
<path style=" fill:#8D6C9F;" d="M 10 50 C 9.449219 50 9 50.449219 9 51 L 9 53 C 9 53.550781 9.449219 54 10 54 C 10.550781 54 11 53.550781 11 53 L 11 51 C 11 50.449219 10.550781 50 10 50 Z "/>
<path style=" fill:#8D6C9F;" d="M 30 50 C 29.449219 50 29 50.449219 29 51 L 29 53 C 29 53.550781 29.449219 54 30 54 C 30.550781 54 31 53.550781 31 53 L 31 51 C 31 50.449219 30.550781 50 30 50 Z "/>
<path style=" fill:#8D6C9F;" d="M 35 54 C 35.550781 54 36 53.550781 36 53 L 36 51 C 36 50.449219 35.550781 50 35 50 C 34.449219 50 34 50.449219 34 51 L 34 53 C 34 53.550781 34.449219 54 35 54 Z "/>
<path style=" fill:#8D6C9F;" d="M 40 54 C 40.550781 54 41 53.550781 41 53 L 41 51 C 41 50.449219 40.550781 50 40 50 C 39.449219 50 39 50.449219 39 51 L 39 53 C 39 53.550781 39.449219 54 40 54 Z "/>
<path style=" fill:#8D6C9F;" d="M 45 54 C 45.550781 54 46 53.550781 46 53 L 46 51 C 46 50.449219 45.550781 50 45 50 C 44.449219 50 44 50.449219 44 51 L 44 53 C 44 53.550781 44.449219 54 45 54 Z "/>
<path style=" fill:#8D6C9F;" d="M 50 54 C 50.550781 54 51 53.550781 51 53 L 51 51 C 51 50.449219 50.550781 50 50 50 C 49.449219 50 49 50.449219 49 51 L 49 53 C 49 53.550781 49.449219 54 50 54 Z "/>
<path style=" fill:#8D6C9F;" d="M 20 50 C 19.449219 50 19 50.449219 19 51 L 19 53 C 19 53.550781 19.449219 54 20 54 C 20.550781 54 21 53.550781 21 53 L 21 51 C 21 50.449219 20.550781 50 20 50 Z "/>
<path style=" fill:#8D6C9F;" d="M 25 50 C 24.449219 50 24 50.449219 24 51 L 24 53 C 24 53.550781 24.449219 54 25 54 C 25.550781 54 26 53.550781 26 53 L 26 51 C 26 50.449219 25.550781 50 25 50 Z "/>
<path style=" fill:#8D6C9F;" d="M 52.511719 10.070313 C 52.34375 10.023438 52.171875 10 52 10 L 9 10 C 7.34375 10 6 11.34375 6 13 L 6 55 C 6 56.65625 7.34375 58 9 58 L 51 58 C 52.65625 58 54 56.65625 54 55 L 54 12 C 54 11.828125 53.976563 11.65625 53.929688 11.488281 Z M 52 55 C 52 55.550781 51.550781 56 51 56 L 9 56 C 8.449219 56 8 55.550781 8 55 L 8 13 C 8 12.449219 8.449219 12 9 12 L 50.589844 12 L 52 13.410156 Z "/>
<path style=" fill:#FAEFDE;" d="M 28.738281 31.019531 L 53.238281 6.511719 L 47.589844 6.511719 L 47.589844 0.859375 L 63.140625 0.859375 L 63.140625 16.410156 L 57.480469 16.410156 L 57.480469 10.761719 L 32.980469 35.261719 Z "/>
<path style=" fill:#8D6C9F;" d="M 63.140625 -0.140625 L 47.589844 -0.140625 C 47.039063 -0.140625 46.589844 0.308594 46.589844 0.859375 L 46.589844 6.511719 C 46.589844 7.0625 47.039063 7.511719 47.589844 7.511719 L 50.828125 7.511719 L 28 30.308594 C 27.613281 30.699219 27.613281 31.328125 28 31.71875 L 32.269531 36 C 32.660156 36.386719 33.289063 36.386719 33.679688 36 L 56.480469 13.199219 L 56.480469 16.441406 C 56.480469 16.992188 56.925781 17.441406 57.480469 17.441406 L 63.140625 17.441406 C 63.691406 17.441406 64.140625 16.992188 64.140625 16.441406 L 64.140625 0.859375 C 64.140625 0.308594 63.691406 -0.140625 63.140625 -0.140625 Z M 62.140625 15.421875 L 58.488281 15.421875 L 58.488281 10.761719 C 58.492188 10.355469 58.25 9.988281 57.875 9.832031 C 57.5 9.675781 57.066406 9.761719 56.78125 10.050781 L 33 33.851563 L 30.148438 31 L 53.949219 7.199219 C 54.238281 6.914063 54.324219 6.480469 54.167969 6.105469 C 54.011719 5.730469 53.644531 5.488281 53.238281 5.488281 L 48.589844 5.488281 L 48.589844 1.859375 L 62.140625 1.859375 Z "/>
</g>
</svg>
